# xmcd CD database file
#
# Track frame offsets:
#	150
#	16300
#	37054
#	55644
#	66985
#	82498
#	101692
#	122960
#	141591
#	154696
#	170633
#	183746
#	197977
#
# Disc length: 2890 seconds
#
# Revision: 0
# Processed by: cddbd v1.5.2PL0 Copyright (c) Steve Scherf et al.
# Submitted via: cdripper 1,0,39,0213
#
DISCID=ca0b480d
DTITLE=Lisa Ono - Jambalaya
DYEAR=1900
DGENRE=Jazz
TTITLE0=13 - My Boy
TTITLE1=01 - Jambalaya
TTITLE2=02 - Take Me Home Country Roads
TTITLE3=03 - Stay All Night
TTITLE4=04 - Saliane
TTITLE5=05 - I'm An Old Cowhand
TTITLE6=06 - Gentle On My Mind
TTITLE7=07 - Crazy
TTITLE8=08 - I've Just Seen A Face
TTITLE9=09 - Old Fashioned Love-You Are My Sunshine
TTITLE10=10 - Little Cabin Home On The Hill
TTITLE11=11 - She Wore A Yellow Ribbon
TTITLE12=12 - Danny Boy
EXTD=
EXTT0=
EXTT1=
EXTT2=
EXTT3=
EXTT4=
EXTT5=
EXTT6=
EXTT7=
EXTT8=
EXTT9=
EXTT10=
EXTT11=
EXTT12=
PLAYORDER=
